<svg width="500" height="500" viewBox="0 0 500 500" fill="none" xmlns="http://www.w3.org/2000/svg">
<path d="M249.05 480.64C379.71 480.64 485.63 419.487 485.63 344.05C485.63 268.613 379.71 207.46 249.05 207.46C118.39 207.46 12.47 268.613 12.47 344.05C12.47 419.487 118.39 480.64 249.05 480.64Z" fill="#F0F0F0"/>
<path d="M66 385.55L26.72 362.88C25.33 362.08 25.33 360.78 26.72 359.98L243.14 235C243.916 234.61 244.772 234.407 245.64 234.407C246.508 234.407 247.364 234.61 248.14 235L287.41 257.67C288.79 258.47 288.79 259.77 287.41 260.57L71 385.55C70.2247 385.941 69.3684 386.145 68.5 386.145C67.6316 386.145 66.7753 385.941 66 385.55V385.55Z" fill="#E0E0E0"/>
<path d="M202.19 350.05L233.81 331.77C237.07 329.88 238.7 327.42 238.7 324.95C238.7 322.48 238.7 320.55 238.7 320.55L200.67 299C199.755 298.4 198.993 297.593 198.446 296.645C197.899 295.696 197.582 294.633 197.52 293.54V254.54L142.29 286.45V325.45C142.353 326.541 142.671 327.603 143.218 328.549C143.765 329.495 144.526 330.301 145.44 330.9L178.59 350.04C185.11 353.81 195.68 353.81 202.19 350.05Z" fill="#BA68C8"/>
<g opacity="0.5">
<path d="M202.19 350.05L233.81 331.77C237.07 329.88 238.7 327.42 238.7 324.95C238.7 322.48 238.7 320.55 238.7 320.55L200.67 299C199.755 298.4 198.993 297.593 198.446 296.645C197.899 295.696 197.582 294.633 197.52 293.54V254.54L142.29 286.45V325.45C142.353 326.541 142.671 327.603 143.218 328.549C143.765 329.495 144.526 330.301 145.44 330.9L178.59 350.04C185.11 353.81 195.68 353.81 202.19 350.05Z" fill="black"/>
</g>
<path d="M155.55 332.36V336.74L145.43 330.91C144.515 330.31 143.753 329.503 143.206 328.555C142.659 327.606 142.342 326.543 142.28 325.45V286.45L152.81 280.38C153.02 283.05 153.26 285.81 153.48 288.5L146.1 292.77V323.23C146.156 324.322 146.47 325.385 147.016 326.332C147.562 327.279 148.324 328.084 149.24 328.68L155.55 332.36Z" fill="#BA68C8"/>
<path opacity="0.7" d="M155.55 332.36V336.74L145.43 330.91C144.515 330.31 143.753 329.503 143.206 328.555C142.659 327.606 142.342 326.543 142.28 325.45V286.45L152.81 280.38C153.02 283.05 153.26 285.81 153.48 288.5L146.1 292.77V323.23C146.156 324.322 146.47 325.385 147.016 326.332C147.562 327.279 148.324 328.084 149.24 328.68L155.55 332.36Z" fill="black"/>
<path d="M146.1 323.26C146.158 324.352 146.474 325.416 147.022 326.363C147.569 327.31 148.333 328.114 149.25 328.71L178.58 345.65C185.1 349.42 195.67 349.42 202.19 345.65L233.83 327.37C240.35 323.61 240.35 317.51 233.83 313.75L204.48 296.8C203.563 296.204 202.799 295.4 202.252 294.453C201.704 293.506 201.388 292.442 201.33 291.35V260.89L146.1 292.8V323.26Z" fill="#BA68C8"/>
<path opacity="0.3" d="M146.1 323.26C146.158 324.352 146.474 325.416 147.022 326.363C147.569 327.31 148.333 328.114 149.25 328.71L178.58 345.65C185.1 349.42 195.67 349.42 202.19 345.65L233.83 327.37C240.35 323.61 240.35 317.51 233.83 313.75L204.48 296.8C203.563 296.204 202.799 295.4 202.252 294.453C201.704 293.506 201.388 292.442 201.33 291.35V260.89L146.1 292.8V323.26Z" fill="black"/>
<path opacity="0.7" d="M210.89 300.51L204.48 296.81C203.563 296.214 202.799 295.41 202.252 294.463C201.704 293.516 201.388 292.452 201.33 291.36V260.89L146.1 292.8V323.26C146.158 324.352 146.474 325.416 147.022 326.363C147.569 327.31 148.333 328.114 149.25 328.71L155.55 332.35L210.89 300.51Z" fill="#BA68C8"/>
<path opacity="0.6" d="M210.89 300.51L204.48 296.81C203.563 296.214 202.799 295.41 202.252 294.463C201.704 293.516 201.388 292.452 201.33 291.36V260.89L146.1 292.8V323.26C146.158 324.352 146.474 325.416 147.022 326.363C147.569 327.31 148.333 328.114 149.25 328.71L155.55 332.35L210.89 300.51Z" fill="black"/>
<path d="M238.71 320.56V325C238.71 327.47 237.07 329.92 233.82 331.81L202.2 350C198.735 351.856 194.861 352.819 190.93 352.8V348.42C194.861 348.439 198.735 347.476 202.2 345.62L233.82 327.33C237.07 325.5 238.71 323 238.71 320.56Z" fill="#BA68C8"/>
<path opacity="0.2" d="M238.71 320.56V325C238.71 327.47 237.07 329.92 233.82 331.81L202.2 350C198.735 351.856 194.861 352.819 190.93 352.8V348.42C194.861 348.439 198.735 347.476 202.2 345.62L233.82 327.33C237.07 325.5 238.71 323 238.71 320.56Z" fill="black"/>
<path d="M57.42 365.32C58.6136 365.897 59.9262 366.185 61.2517 366.16C62.5772 366.136 63.8783 365.8 65.05 365.18L278.63 241.87C279.774 241.121 280.726 240.113 281.408 238.929C282.091 237.744 282.485 236.415 282.56 235.05V48.11C282.514 46.7862 282.155 45.492 281.514 44.3329C280.873 43.1738 279.967 42.1826 278.87 41.44C277.679 40.8609 276.367 40.5717 275.043 40.5961C273.719 40.6204 272.419 40.9576 271.25 41.58L57.67 164.89C56.5252 165.636 55.5726 166.641 54.8897 167.824C54.2068 169.008 53.8129 170.336 53.74 171.7V358.7C53.7976 360.013 54.1601 361.295 54.7988 362.444C55.4375 363.593 56.3349 364.578 57.42 365.32V365.32Z" fill="#BA68C8"/>
<path opacity="0.3" d="M57.42 365.32C58.6136 365.897 59.9262 366.185 61.2517 366.16C62.5772 366.136 63.8783 365.8 65.05 365.18L278.63 241.87C279.774 241.121 280.726 240.113 281.408 238.929C282.091 237.744 282.485 236.415 282.56 235.05V48.11C282.514 46.7862 282.155 45.492 281.514 44.3329C280.873 43.1738 279.967 42.1826 278.87 41.44C277.679 40.8609 276.367 40.5717 275.043 40.5961C273.719 40.6204 272.419 40.9576 271.25 41.58L57.67 164.89C56.5252 165.636 55.5726 166.641 54.8897 167.824C54.2068 169.008 53.8129 170.336 53.74 171.7V358.7C53.7976 360.013 54.1601 361.295 54.7988 362.444C55.4375 363.593 56.3349 364.578 57.42 365.32V365.32Z" fill="black"/>
<path d="M65.05 365.17L278.63 241.86C279.776 241.115 280.73 240.11 281.415 238.926C282.099 237.743 282.495 236.415 282.57 235.05V48.1C282.57 45.59 280.8 44.58 278.63 45.83L65.05 169.14C63.9008 169.893 62.9458 170.907 62.2629 172.099C61.5799 173.291 61.1883 174.628 61.12 176V362.9C61.12 365.41 62.88 366.43 65.05 365.17Z" fill="#BA68C8"/>
<path d="M65.05 365.17L278.63 241.86C279.776 241.115 280.73 240.11 281.415 238.926C282.099 237.743 282.495 236.415 282.57 235.05V48.1C282.57 45.59 280.8 44.58 278.63 45.83L65.05 169.14C63.9008 169.893 62.9458 170.907 62.2629 172.099C61.5799 173.291 61.1883 174.628 61.12 176V362.9C61.12 365.41 62.88 366.43 65.05 365.17Z" fill="#BA68C8"/>
<path opacity="0.5" d="M65.05 365.17L278.63 241.86C279.776 241.115 280.73 240.11 281.415 238.926C282.099 237.743 282.495 236.415 282.57 235.05V48.1C282.57 45.59 280.8 44.58 278.63 45.83L65.05 169.14C63.9008 169.893 62.9458 170.907 62.2629 172.099C61.5799 173.291 61.1883 174.628 61.12 176V362.9C61.12 365.41 62.88 366.43 65.05 365.17Z" fill="black"/>
<path d="M64.47 365.47C63.3598 365.945 62.161 366.177 60.9538 366.151C59.7466 366.125 58.5588 365.842 57.47 365.32C56.3729 364.575 55.467 363.582 54.8258 362.421C54.1847 361.261 53.8264 359.965 53.78 358.64V337.64L61.16 341.91V362.91C61.11 365.2 62.56 366.23 64.47 365.47Z" fill="#BA68C8"/>
<path opacity="0.7" d="M64.47 365.47C63.3598 365.945 62.161 366.177 60.9538 366.151C59.7466 366.125 58.5588 365.842 57.47 365.32C56.3729 364.575 55.467 363.582 54.8258 362.421C54.1847 361.261 53.8264 359.965 53.78 358.64V337.64L61.16 341.91V362.91C61.11 365.2 62.56 366.23 64.47 365.47Z" fill="black"/>
<path d="M61.12 341.88V362.88C61.12 365.39 62.88 366.41 65.05 365.15L278.63 241.86C279.776 241.115 280.73 240.11 281.415 238.926C282.099 237.743 282.495 236.415 282.57 235.05V214L61.12 341.88Z" fill="#BA68C8"/>
<g opacity="0.5">
<path d="M61.12 341.88V362.88C61.12 365.39 62.88 366.41 65.05 365.15L278.63 241.86C279.776 241.115 280.73 240.11 281.415 238.926C282.099 237.743 282.495 236.415 282.57 235.05V214L61.12 341.88Z" fill="black"/>
</g>
<path d="M68.5 326.37V178.37C68.5419 177.55 68.7777 176.752 69.1879 176.041C69.5982 175.33 70.1712 174.727 70.86 174.28L272.86 57.67C274.16 56.92 275.22 57.53 275.22 59.04V207C275.176 207.819 274.939 208.616 274.529 209.327C274.119 210.038 273.547 210.642 272.86 211.09L70.86 327.69C69.55 328.48 68.5 327.87 68.5 326.37Z" fill="#FAFAFA"/>
<path d="M171.84 286.48C170.765 287.179 169.871 288.122 169.229 289.233C168.588 290.343 168.218 291.59 168.15 292.87C168.15 295.22 169.8 296.18 171.84 295C172.914 294.3 173.807 293.356 174.449 292.246C175.09 291.136 175.46 289.89 175.53 288.61C175.53 286.25 173.88 285.3 171.84 286.48Z" fill="#BA68C8"/>
<path opacity="0.5" d="M171.84 286.48C170.765 287.179 169.871 288.122 169.229 289.233C168.588 290.343 168.218 291.59 168.15 292.87C168.15 295.22 169.8 296.18 171.84 295C172.914 294.3 173.807 293.356 174.449 292.246C175.09 291.136 175.46 289.89 175.53 288.61C175.53 286.25 173.88 285.3 171.84 286.48Z" fill="white"/>
<path d="M62.27 172.06C61.5629 173.257 61.1643 174.611 61.11 176V341.88L53.73 337.61V171.7C53.7875 170.327 54.1862 168.99 54.89 167.81L62.27 172.06Z" fill="#BA68C8"/>
<path opacity="0.7" d="M62.27 172.06C61.5629 173.257 61.1643 174.611 61.11 176V341.88L53.73 337.61V171.7C53.7875 170.327 54.1862 168.99 54.89 167.81L62.27 172.06Z" fill="black"/>
<path d="M138.9 407.94L192.26 438.84C193.189 439.314 194.217 439.561 195.26 439.561C196.303 439.561 197.331 439.314 198.26 438.84L355.9 348C357.56 347 357.56 345.5 355.9 344.54L302.53 313.64C301.601 313.166 300.573 312.919 299.53 312.919C298.487 312.919 297.459 313.166 296.53 313.64L138.9 404.49C137.25 405.44 137.24 407 138.9 407.94Z" fill="#E0E0E0"/>
<path d="M352.67 339C352.635 338.628 352.502 338.271 352.284 337.967C352.066 337.663 351.771 337.423 351.43 337.27L301.3 308.34C300.371 307.866 299.343 307.619 298.3 307.619C297.257 307.619 296.229 307.866 295.3 308.34L142.3 396.8C141.961 396.955 141.669 397.196 141.453 397.5C141.237 397.804 141.105 398.159 141.07 398.53V403.79C141.103 404.162 141.236 404.517 141.454 404.82C141.673 405.122 141.968 405.361 142.31 405.51L192.42 434.45C193.35 434.922 194.377 435.168 195.42 435.168C196.463 435.168 197.49 434.922 198.42 434.45L351.42 346.12C351.761 345.969 352.055 345.73 352.273 345.428C352.491 345.126 352.624 344.771 352.66 344.4L352.67 339Z" fill="#BA68C8"/>
<path opacity="0.5" d="M352.67 339C352.635 338.628 352.502 338.271 352.284 337.967C352.066 337.663 351.771 337.423 351.43 337.27L301.3 308.34C300.371 307.866 299.343 307.619 298.3 307.619C297.257 307.619 296.229 307.866 295.3 308.34L142.3 396.8C141.961 396.955 141.669 397.196 141.453 397.5C141.237 397.804 141.105 398.159 141.07 398.53V403.79C141.103 404.162 141.236 404.517 141.454 404.82C141.673 405.122 141.968 405.361 142.31 405.51L192.42 434.45C193.35 434.922 194.377 435.168 195.42 435.168C196.463 435.168 197.49 434.922 198.42 434.45L351.42 346.12C351.761 345.969 352.055 345.73 352.273 345.428C352.491 345.126 352.624 344.771 352.66 344.4L352.67 339Z" fill="black"/>
<path d="M192.45 429.07L142.34 400.26C140.69 399.31 140.68 397.77 142.34 396.81L295.34 308.35C296.269 307.876 297.297 307.629 298.34 307.629C299.383 307.629 300.411 307.876 301.34 308.35L351.47 337.29C353.12 338.29 353.12 339.79 351.47 340.75L198.47 429.08C197.537 429.553 196.505 429.799 195.459 429.798C194.412 429.796 193.381 429.547 192.45 429.07Z" fill="#BA68C8"/>
<path opacity="0.3" d="M192.45 429.07L142.34 400.26C140.69 399.31 140.68 397.77 142.34 396.81L295.34 308.35C296.269 307.876 297.297 307.629 298.34 307.629C299.383 307.629 300.411 307.876 301.34 308.35L351.47 337.29C353.12 338.29 353.12 339.79 351.47 340.75L198.47 429.08C197.537 429.553 196.505 429.799 195.459 429.798C194.412 429.796 193.381 429.547 192.45 429.07Z" fill="black"/>
<path d="M195.25 429.78V435.16C194.273 435.149 193.311 434.912 192.44 434.47L142.35 405.53C142.007 405.379 141.71 405.139 141.49 404.835C141.27 404.531 141.136 404.173 141.1 403.8V398.53C141.139 398.903 141.275 399.258 141.494 399.562C141.713 399.866 142.008 400.106 142.35 400.26L192.44 429.08C193.307 429.535 194.271 429.775 195.25 429.78V429.78Z" fill="#BA68C8"/>
<path opacity="0.7" d="M195.25 429.78V435.16C194.273 435.149 193.311 434.912 192.44 434.47L142.35 405.53C142.007 405.379 141.71 405.139 141.49 404.835C141.27 404.531 141.136 404.173 141.1 403.8V398.53C141.139 398.903 141.275 399.258 141.494 399.562C141.713 399.866 142.008 400.106 142.35 400.26L192.44 429.08C193.307 429.535 194.271 429.775 195.25 429.78V429.78Z" fill="black"/>
<path d="M259.24 345.6L264.95 348.9C265.064 348.96 265.191 348.991 265.32 348.99L270.58 346.06L264.44 342.6L259.24 345.6Z" fill="#37474F"/>
<path d="M266.11 341.64L271.85 344.95C271.956 345.001 272.073 345.025 272.19 345.02H272.4L277.45 342.1L271.31 338.65L266.11 341.64Z" fill="#37474F"/>
<path d="M247.67 352.29L253.4 355.6C253.506 355.65 253.623 355.674 253.74 355.67L262.26 350.86L256.12 347.41L247.67 352.29Z" fill="#37474F"/>
<path d="M240.8 356.26L246.52 359.56C246.629 359.614 246.749 359.641 246.87 359.64L252.14 356.71L246 353.26L240.8 356.26Z" fill="#37474F"/>
<path d="M209.4 408.18L214.67 405.25L208.53 401.8L203.33 404.8L209.06 408.12C209.169 408.161 209.284 408.181 209.4 408.18V408.18Z" fill="#37474F"/>
<path d="M233.92 360.22L239.63 363.52C239.743 363.583 239.871 363.614 240 363.61L245.26 360.68L239.12 357.22L233.92 360.22Z" fill="#37474F"/>
<path d="M272.21 347.09L267.01 350.09L272.73 353.39C272.837 353.448 272.958 353.476 273.08 353.47L278.35 350.54L272.21 347.09Z" fill="#37474F"/>
<path d="M253 374L258.27 371.07L252.12 367.62L246.92 370.62L252.65 373.93C252.759 373.981 252.879 374.005 253 374V374Z" fill="#37474F"/>
<path d="M280 349.51L285.26 346.58L279.12 343.12L273.92 346.12L279.66 349.43C279.765 349.485 279.882 349.512 280 349.51V349.51Z" fill="#37474F"/>
<path d="M246.13 378L251.39 375.07L245.25 371.61L240.05 374.61L245.76 377.91C245.873 377.973 246.001 378.004 246.13 378V378Z" fill="#37474F"/>
<path d="M239.26 382L244.52 379.07L238.38 375.61L233.18 378.61L238.91 381.92C239.019 381.974 239.139 382.001 239.26 382V382Z" fill="#37474F"/>
<path d="M266.74 366.1L277.79 359.83L263.89 351.89L258 355.31L265.27 359.5C265.329 359.527 265.379 359.569 265.416 359.621C265.453 359.674 265.475 359.736 265.48 359.8C265.477 359.857 265.458 359.912 265.427 359.959C265.395 360.007 265.351 360.045 265.3 360.07L260.71 362.72L266.41 366.01C266.511 366.066 266.624 366.097 266.74 366.1Z" fill="#37474F"/>
<path d="M220.18 368.16L225.91 371.47C226.016 371.521 226.133 371.545 226.25 371.54L231.52 368.61L225.37 365.16L220.18 368.16Z" fill="#37474F"/>
<path d="M259.87 370.07L265.14 367.14L259 363.69L253.8 366.69L259.49 369.97C259.605 370.037 259.737 370.072 259.87 370.07V370.07Z" fill="#37474F"/>
<path d="M181.57 406.31L186.84 403.38L180.69 399.92L175.49 402.92L181.2 406.21C181.313 406.274 181.44 406.308 181.57 406.31Z" fill="#37474F"/>
<path d="M165.2 399.9L170.94 403.22C171.044 403.265 171.156 403.289 171.27 403.29H171.48L176.54 400.37L170.39 396.92L165.2 399.9Z" fill="#37474F"/>
<path d="M191.15 409.75H191.36L196.36 406.83L190.22 403.38L185.02 406.38L190.76 409.69C190.884 409.74 191.017 409.76 191.15 409.75V409.75Z" fill="#37474F"/>
<path d="M195.66 416.11L200.93 413.18L194.78 409.73L189.58 412.73L195.29 416.02C195.402 416.085 195.531 416.116 195.66 416.11V416.11Z" fill="#37474F"/>
<path d="M172.07 395.93L177.8 399.25C177.908 399.294 178.023 399.318 178.14 399.32L183.41 396.39L177.26 392.94L172.07 395.93Z" fill="#37474F"/>
<path d="M202.53 412.15L207.79 409.21L201.65 405.76L196.46 408.76L202.19 412.07C202.295 412.123 202.412 412.151 202.53 412.15Z" fill="#37474F"/>
<path d="M192.69 384L198.41 387.31C198.52 387.36 198.639 387.384 198.76 387.38L204.03 384.46L197.88 381L192.69 384Z" fill="#37474F"/>
<path d="M199.56 380.06L205.27 383.36C205.38 383.421 205.504 383.452 205.63 383.45L210.9 380.52L204.76 377.06L199.56 380.06Z" fill="#37474F"/>
<path d="M206.43 376.09L212.13 379.39C212.244 379.451 212.371 379.482 212.5 379.48L217.77 376.55L211.63 373.1L206.43 376.09Z" fill="#37474F"/>
<path d="M185.81 388L191.52 391.29C191.629 391.354 191.753 391.388 191.88 391.39L197.16 388.45L191 385L185.81 388Z" fill="#37474F"/>
<path d="M213.31 372.13L219.04 375.44C219.147 375.487 219.263 375.511 219.38 375.51L224.65 372.58L218.5 369.13L213.31 372.13Z" fill="#37474F"/>
<path d="M178.94 392L184.67 395.3C184.779 395.353 184.899 395.381 185.02 395.38L190.28 392.45L184.14 389L178.94 392Z" fill="#37474F"/>
<path d="M227.05 364.19L232.79 367.51C232.894 367.555 233.006 367.579 233.12 367.58L238.39 364.65L232.25 361.19L227.05 364.19Z" fill="#37474F"/>
<path d="M244.22 363.25L249.93 366.54C250.043 366.602 250.171 366.633 250.3 366.63H250.51L255.56 363.71L249.42 360.26L244.22 363.25Z" fill="#37474F"/>
<path d="M281.31 332.87L287.02 336.16C287.131 336.22 287.254 336.251 287.38 336.25L292.65 333.32L286.5 329.87L281.31 332.87Z" fill="#37474F"/>
<path d="M288.18 328.9L293.89 332.19C294 332.251 294.124 332.282 294.25 332.28L299.52 329.35L293.38 325.9L288.18 328.9Z" fill="#37474F"/>
<path d="M237.35 367.21L243.06 370.51C243.171 370.57 243.294 370.601 243.42 370.6L248.69 367.67L242.55 364.21L237.35 367.21Z" fill="#37474F"/>
<path d="M295.05 324.93L300.76 328.23C300.871 328.289 300.994 328.32 301.12 328.32L306.39 325.38L300.25 321.93L295.05 324.93Z" fill="#37474F"/>
<path d="M257.17 362.66H257.38L262.43 359.74L256.29 356.29L251.09 359.29L256.8 362.58C256.915 362.637 257.042 362.665 257.17 362.66V362.66Z" fill="#37474F"/>
<path d="M289.07 337.35L294.77 340.64C294.887 340.704 295.017 340.738 295.15 340.74L300.41 337.81L294.27 334.35L289.07 337.35Z" fill="#37474F"/>
<path d="M302.82 329.41L308.52 332.7C308.632 332.766 308.76 332.8 308.89 332.8L314.16 329.87L308 326.42L302.82 329.41Z" fill="#37474F"/>
<path d="M302 336.77L307.27 333.84L301.12 330.38L295.92 333.38L301.65 336.69C301.759 336.744 301.879 336.771 302 336.77V336.77Z" fill="#37474F"/>
<path d="M323.21 333.25C323.311 333.294 323.42 333.318 323.53 333.32H323.75L328.8 330.41L314.89 322.47L309.69 325.47L323.21 333.25Z" fill="#37474F"/>
<path d="M230.47 371.18L236.19 374.48C236.3 374.542 236.424 374.573 236.55 374.57H236.76L241.82 371.66L235.67 368.2L230.47 371.18Z" fill="#37474F"/>
<path d="M309.79 341.25H310L315.05 338.33L308.91 334.88L303.71 337.88L309.42 341.17C309.535 341.227 309.662 341.255 309.79 341.25V341.25Z" fill="#37474F"/>
<path d="M316.66 337.28L321.93 334.35L315.78 330.9L310.58 333.9L316.28 337.19C316.397 337.251 316.528 337.282 316.66 337.28Z" fill="#37474F"/>
<path d="M196.11 391L201.82 394.29C201.933 394.354 202.06 394.389 202.19 394.39L207.45 391.46L201.31 388L196.11 391Z" fill="#37474F"/>
<path d="M182.37 399L188.07 402.29C188.183 402.352 188.311 402.383 188.44 402.38H188.65L193.71 399.46L187.56 396L182.37 399Z" fill="#37474F"/>
<path d="M204.89 401.82L210.16 398.89L204 395.43L198.81 398.43L204.55 401.74C204.654 401.796 204.772 401.823 204.89 401.82Z" fill="#37474F"/>
<path d="M198 405.78L203.27 402.85L197.12 399.4L191.92 402.4L197.66 405.71C197.766 405.761 197.883 405.785 198 405.78V405.78Z" fill="#37474F"/>
<path d="M211.76 397.85H211.98L217.03 394.94L210.89 391.48L205.69 394.48L211.39 397.77C211.504 397.829 211.632 397.856 211.76 397.85V397.85Z" fill="#37474F"/>
<path d="M223.6 375.15L229.32 378.45C229.432 378.505 229.555 378.533 229.68 378.53H229.89L234.94 375.61L228.8 372.16L223.6 375.15Z" fill="#37474F"/>
<path d="M225.51 389.91L230.78 386.98L224.63 383.53L219.43 386.53L225.14 389.82C225.254 389.88 225.381 389.911 225.51 389.91V389.91Z" fill="#37474F"/>
<path d="M218.64 393.88L223.9 391L217.76 387.55L212.56 390.55L218.3 393.87C218.412 393.895 218.527 393.899 218.64 393.88V393.88Z" fill="#37474F"/>
<path d="M209.86 383.09L215.56 386.38C215.673 386.442 215.801 386.473 215.93 386.47L221.2 383.54L215.06 380.09L209.86 383.09Z" fill="#37474F"/>
<path d="M189.24 395L194.94 398.29C195.057 398.352 195.188 398.383 195.32 398.38L200.58 395.45L194.44 392L189.24 395Z" fill="#37474F"/>
<path d="M216.73 379.12L222.44 382.41C222.553 382.472 222.681 382.503 222.81 382.5L228.07 379.57L221.93 376.12L216.73 379.12Z" fill="#37474F"/>
<path d="M203 387.05L208.7 390.35C208.813 390.412 208.941 390.443 209.07 390.44H209.28L214.34 387.53L208.19 384.07L203 387.05Z" fill="#37474F"/>
<path d="M232.38 385.94L237.65 383.01L231.5 379.56L226.31 382.56L232.03 385.86C232.137 385.918 232.258 385.946 232.38 385.94Z" fill="#37474F"/>
<path d="M273 337.67L278.73 340.98C278.837 341.029 278.953 341.053 279.07 341.05L284.34 338.12L278.19 334.67L273 337.67Z" fill="#37474F"/>
<path d="M163.52 400.87L158.32 403.87L164.06 407.18C164.166 407.231 164.283 407.255 164.4 407.25H164.61L169.67 404.33L163.52 400.87Z" fill="#37474F"/>
<path d="M173.82 403.89L166.09 408.35L171.83 411.67C171.934 411.715 172.046 411.739 172.16 411.74H172.38L179.96 407.36L173.82 403.89Z" fill="#37474F"/>
<path d="M155.18 394.8L148.89 398.43L154.61 401.72C154.72 401.782 154.844 401.813 154.97 401.81L161.32 398.26L155.18 394.8Z" fill="#37474F"/>
<path d="M187.91 413.7L181.63 417.33L187.33 420.62C187.444 420.68 187.571 420.711 187.7 420.71L194.05 417.15L187.91 413.7Z" fill="#37474F"/>
<path d="M183.39 407.34L173.86 412.84L179.59 416.15C179.697 416.199 179.813 416.223 179.93 416.22H180.14L189.54 410.8L183.39 407.34Z" fill="#37474F"/>
<path d="M165.92 395.49L171.18 392.56L165 389.11L159.8 392.11L165.51 395.41C165.636 395.476 165.778 395.504 165.92 395.49Z" fill="#37474F"/>
<path d="M189.39 421.81L195.1 425.11C195.212 425.163 195.336 425.191 195.46 425.19L203.26 420.8L197.12 417.35L189.39 421.81Z" fill="#37474F"/>
<path d="M172.79 391.52L178.06 388.59L171.91 385.14L166.72 388.14L172.45 391.45C172.557 391.499 172.673 391.523 172.79 391.52V391.52Z" fill="#37474F"/>
<path d="M203.27 373.93H203.48L208.54 371.01L202.39 367.56L197.2 370.56L202.91 373.86C203.022 373.914 203.146 373.939 203.27 373.93V373.93Z" fill="#37474F"/>
<path d="M210.14 370L215.41 367.07L209.27 363.61L204.07 366.61L209.79 369.91C209.897 369.971 210.017 370.002 210.14 370Z" fill="#37474F"/>
<path d="M196.4 377.89H196.61L201.61 374.97L195.47 371.52L190.27 374.52L196 377.8C196.123 377.866 196.261 377.897 196.4 377.89V377.89Z" fill="#37474F"/>
<path d="M186.53 383.59H186.75L191.8 380.68L185.66 377.22L180.46 380.22L186.18 383.52C186.288 383.576 186.409 383.6 186.53 383.59Z" fill="#37474F"/>
<path d="M179.66 387.56L184.93 384.63L178.79 381.17L173.59 384.17L179.32 387.48C179.425 387.535 179.542 387.562 179.66 387.56V387.56Z" fill="#37474F"/>
<path d="M326.13 342.87L331.87 346.19C331.975 346.232 332.087 346.252 332.2 346.25H332.41L337.41 343.33L331.27 339.88L326.13 342.87Z" fill="#37474F"/>
<path d="M290.31 363.54L296.01 366.83C296.121 366.898 296.25 366.933 296.38 366.93L301.65 364L295.51 360.54L290.31 363.54Z" fill="#37474F"/>
<path d="M312.38 350.81L318.09 354.1C318.201 354.16 318.324 354.191 318.45 354.19H318.66L330.59 347.3L324.45 343.85L312.38 350.81Z" fill="#37474F"/>
<path d="M297.18 359.58L302.88 362.86C302.995 362.928 303.126 362.963 303.26 362.96L308.53 360.03L302.38 356.58L297.18 359.58Z" fill="#37474F"/>
<path d="M304.06 355.61L309.74 358.88C309.855 358.957 309.992 358.996 310.13 358.99L315.4 356.06L309.25 352.61L304.06 355.61Z" fill="#37474F"/>
<path d="M217 366H217.22L222.27 363.08L216.13 359.62L210.93 362.62L216.63 365.91C216.744 365.971 216.871 366.002 217 366V366Z" fill="#37474F"/>
<path d="M330.43 331.41L325.23 334.41L338.74 342.21C338.844 342.255 338.956 342.279 339.07 342.28H339.28L344.33 339.36L330.43 331.41Z" fill="#37474F"/>
<path d="M206.76 411.79L212.46 415.08C212.574 415.14 212.701 415.171 212.83 415.17L219.18 411.61L213 408.16L206.76 411.79Z" fill="#37474F"/>
<path d="M214.71 407.19L220.41 410.48C220.526 410.546 220.657 410.58 220.79 410.58H221L260.06 388L253.91 384.54L214.71 407.19Z" fill="#37474F"/>
<path d="M216.27 404.21L221.54 401.28L215.4 397.83L210.2 400.83L215.93 404.13C216.036 404.182 216.152 404.21 216.27 404.21Z" fill="#37474F"/>
<path d="M198.8 416.38L204.5 419.67C204.613 419.733 204.74 419.768 204.87 419.77L211.22 416.21L205.08 412.75L198.8 416.38Z" fill="#37474F"/>
<path d="M255.59 383.59L261.3 386.89C261.412 386.947 261.535 386.978 261.66 386.98H261.88L268.01 383.44L261.87 380L255.59 383.59Z" fill="#37474F"/>
<path d="M271.5 374.4L277.23 377.71C277.338 377.765 277.458 377.793 277.58 377.79H277.79L283.93 374.25L277.79 370.79L271.5 374.4Z" fill="#37474F"/>
<path d="M263.54 379L269.28 382.31C269.387 382.359 269.503 382.383 269.62 382.38L275.97 378.82L269.83 375.37L263.54 379Z" fill="#37474F"/>
<path d="M279.46 369.81L285.17 373.1C285.283 373.162 285.411 373.193 285.54 373.19H285.75L293.33 368.81L287.19 365.36L279.46 369.81Z" fill="#37474F"/>
<path d="M286.83 345.54H287.04L292.1 342.63L286 339.15L280.8 342.15L286.53 345.46C286.623 345.507 286.726 345.535 286.83 345.54V345.54Z" fill="#37474F"/>
<path d="M295.49 358.48H295.7L300.76 355.56L294.62 352.11L289.42 355.11L295.14 358.42C295.25 358.468 295.37 358.488 295.49 358.48V358.48Z" fill="#37474F"/>
<path d="M271.26 372.47L285.57 364.31L279.42 360.86L265.18 369.08L270.92 372.39C271.025 372.445 271.142 372.473 271.26 372.47Z" fill="#37474F"/>
<path d="M310.68 349.7H310.9L315.95 346.78L309.81 343.33L304.61 346.33L310.34 349.64C310.447 349.685 310.564 349.706 310.68 349.7V349.7Z" fill="#37474F"/>
<path d="M317.56 345.74H317.77L322.82 342.83L316.68 339.37L311.48 342.37L317.2 345.68C317.314 345.728 317.437 345.748 317.56 345.74V345.74Z" fill="#37474F"/>
<path d="M264.38 376.44L269.65 373.51L263.51 370.05L258.31 373.05L264.02 376.35C264.131 376.408 264.255 376.439 264.38 376.44Z" fill="#37474F"/>
<path d="M302.92 345.22H303.13L308.18 342.3L302 338.84L296.8 341.84L302.5 345.12C302.625 345.198 302.773 345.233 302.92 345.22V345.22Z" fill="#37474F"/>
<path d="M230 396.27L235.27 393.34L229.12 389.89L223.93 392.89L229.66 396.2C229.766 396.251 229.883 396.275 230 396.27V396.27Z" fill="#37474F"/>
<path d="M257.51 380.4L262.78 377.47L256.63 374L251.44 377L257.18 380.32C257.284 380.367 257.396 380.394 257.51 380.4V380.4Z" fill="#37474F"/>
<path d="M223.15 400.24H223.36L228.36 397.32L222.22 393.87L217.02 396.87L222.76 400.18C222.882 400.236 223.017 400.257 223.15 400.24V400.24Z" fill="#37474F"/>
<path d="M236.89 392.31L242.16 389.38L236 385.92L230.8 388.92L236.55 392.24C236.656 392.291 236.773 392.315 236.89 392.31V392.31Z" fill="#37474F"/>
<path d="M243.77 388.34H244L249.05 385.42L242.89 382L237.69 385L243.4 388.3C243.518 388.346 243.645 388.36 243.77 388.34V388.34Z" fill="#37474F"/>
<path d="M250.64 384.37H250.85L255.91 381.45L249.76 378L244.56 381L250.3 384.31C250.408 384.353 250.524 384.373 250.64 384.37V384.37Z" fill="#37474F"/>
<path d="M233.75 356.33L239 353.4L232.85 349.94L227.65 352.94L233.36 356.23C233.476 356.303 233.613 356.338 233.75 356.33V356.33Z" fill="#37474F"/>
<path d="M324.43 341.77H324.64L329.7 338.86L323.55 335.4L318.35 338.4L324.09 341.72C324.199 341.759 324.314 341.776 324.43 341.77V341.77Z" fill="#37474F"/>
<path d="M247.5 348.39L252.76 345.46L246.62 342L241.42 345L247.12 348.29C247.236 348.356 247.367 348.39 247.5 348.39V348.39Z" fill="#37474F"/>
<path d="M262.76 339.58L268.03 336.65L261.88 333.19L256.69 336.19L262.4 339.49C262.51 339.552 262.634 339.583 262.76 339.58V339.58Z" fill="#37474F"/>
<path d="M255.89 343.55L261.15 340.62L255 337.16L249.8 340.16L255.51 343.46C255.627 343.523 255.758 343.554 255.89 343.55Z" fill="#37474F"/>
<path d="M226.88 360.3L232.15 357.36L226 353.91L220.81 356.91L226.52 360.21C226.632 360.267 226.755 360.298 226.88 360.3Z" fill="#37474F"/>
<path d="M240.62 352.36H240.84L245.84 349.44L239.75 346L234.55 349L240.25 352.29C240.366 352.344 240.493 352.368 240.62 352.36V352.36Z" fill="#37474F"/>
<path d="M269.63 335.61L274.9 332.68L268.76 329.23L263.56 332.23L269.27 335.52C269.38 335.582 269.504 335.613 269.63 335.61V335.61Z" fill="#37474F"/>
<path d="M296.58 317.75L301.84 314.82L298.5 313L293.3 316L296.22 317.65C296.331 317.71 296.454 317.744 296.58 317.75V317.75Z" fill="#37474F"/>
<path d="M308 324.35L313.27 321.42L307.12 318L301.92 321L307.63 324.3C307.747 324.346 307.874 324.364 308 324.35V324.35Z" fill="#37474F"/>
<path d="M276 329.66H276.21L281.26 326.74L277.92 324.94L272.72 327.94L275.63 329.59C275.747 329.639 275.873 329.663 276 329.66Z" fill="#37474F"/>
<path d="M282.83 325.69H283.04L288.04 322.78L284.76 321L279.56 324L282.49 325.65C282.599 325.689 282.715 325.702 282.83 325.69V325.69Z" fill="#37474F"/>
<path d="M289.7 321.72L294.97 318.79L291.63 317L286.43 320L289.37 321.66C289.475 321.702 289.587 321.722 289.7 321.72V321.72Z" fill="#37474F"/>
<g opacity="0.8">
<path d="M297.52 62.76V211.21C297.463 212.28 297.154 213.321 296.619 214.248C296.084 215.176 295.337 215.965 294.44 216.55L94.35 332.29C94.0491 332.477 93.704 332.58 93.35 332.59C93.2204 332.605 93.0896 332.605 92.96 332.59C92.87 332.571 92.7827 332.54 92.7 332.5L92.53 332.4L92.35 332.28C92.2888 332.235 92.2319 332.185 92.18 332.13C91.9383 331.9 91.7446 331.625 91.61 331.32C91.3966 330.828 91.2877 330.297 91.29 329.76V182C91.35 180.929 91.6609 179.886 92.1976 178.957C92.7343 178.028 93.4819 177.237 94.38 176.65L294.44 61C294.738 60.7928 295.083 60.6609 295.443 60.6156C295.804 60.5703 296.17 60.613 296.51 60.74C296.604 60.7823 296.694 60.8324 296.78 60.89V60.89C296.859 60.9472 296.927 61.0184 296.98 61.1C297.015 61.132 297.046 61.1691 297.07 61.21C297.112 61.257 297.146 61.3112 297.17 61.37C297.25 61.4898 297.311 61.6214 297.35 61.76C297.385 61.85 297.409 61.9441 297.42 62.04C297.424 62.0494 297.427 62.0596 297.427 62.07C297.427 62.0804 297.424 62.0906 297.42 62.1C297.447 62.1911 297.464 62.2851 297.47 62.38C297.51 62.49 297.52 62.62 297.52 62.76Z" fill="#455A64"/>
<path d="M295.81 61.56C295.913 61.5605 296.015 61.5809 296.11 61.62V61.62H296.17L296.25 61.73L296.33 61.84C296.33 61.84 296.33 61.84 296.33 61.89L296.42 62.18C296.419 62.2033 296.419 62.2267 296.42 62.25C296.42 62.35 296.42 62.45 296.42 62.56V211.21C296.365 212.105 296.103 212.976 295.656 213.753C295.208 214.53 294.587 215.193 293.84 215.69L93.85 331.43C93.6948 331.53 93.5148 331.586 93.33 331.59V331.59H93.12H93.05L92.92 331.5V331.45C92.7766 331.32 92.6639 331.159 92.59 330.98C92.4282 330.615 92.3464 330.219 92.35 329.82V182C92.4047 181.104 92.6672 180.232 93.1167 179.455C93.5662 178.677 94.1904 178.015 94.94 177.52L294.93 61.84C295.197 61.6772 295.498 61.5811 295.81 61.56V61.56ZM295.81 60.56C295.325 60.5749 294.853 60.7162 294.44 60.97L94.35 176.66C93.4532 177.246 92.7065 178.035 92.1698 178.962C91.6331 179.89 91.3215 180.93 91.26 182V329.7C91.2577 330.237 91.3666 330.768 91.58 331.26C91.7146 331.565 91.9083 331.84 92.15 332.07C92.2019 332.125 92.2588 332.175 92.32 332.22L92.5 332.34L92.67 332.44C92.7527 332.48 92.84 332.511 92.93 332.53C93.0596 332.545 93.1904 332.545 93.32 332.53H93.37C93.724 332.52 94.0691 332.417 94.37 332.23L294.44 216.55C295.337 215.965 296.084 215.176 296.619 214.248C297.154 213.321 297.463 212.28 297.52 211.21V62.76C297.52 62.62 297.52 62.49 297.52 62.37C297.514 62.2751 297.497 62.1811 297.47 62.09C297.474 62.0806 297.477 62.0704 297.477 62.06C297.477 62.0496 297.474 62.0394 297.47 62.03C297.459 61.9341 297.435 61.84 297.4 61.75C297.361 61.6114 297.3 61.4798 297.22 61.36C297.196 61.3012 297.162 61.247 297.12 61.2C297.096 61.1591 297.065 61.122 297.03 61.09C296.977 61.0084 296.909 60.9372 296.83 60.88V60.88C296.744 60.8224 296.654 60.7723 296.56 60.73C296.341 60.6287 296.102 60.5775 295.86 60.58L295.81 60.56Z" fill="#455A64"/>
<g opacity="0.7">
<path d="M297.52 62.76V211.21C297.463 212.28 297.154 213.321 296.619 214.248C296.084 215.176 295.337 215.965 294.44 216.55L94.35 332.29C94.0491 332.477 93.704 332.58 93.35 332.59C93.2204 332.605 93.0896 332.605 92.96 332.59C92.87 332.571 92.7827 332.54 92.7 332.5L92.53 332.4L92.35 332.28C92.2888 332.235 92.2319 332.185 92.18 332.13C91.9383 331.9 91.7446 331.625 91.61 331.32C91.3966 330.828 91.2877 330.297 91.29 329.76V182C91.35 180.929 91.6609 179.886 92.1976 178.957C92.7343 178.028 93.4819 177.237 94.38 176.65L294.44 61C294.738 60.7928 295.083 60.6609 295.443 60.6156C295.804 60.5703 296.17 60.613 296.51 60.74C296.604 60.7823 296.694 60.8324 296.78 60.89V60.89C296.859 60.9472 296.927 61.0184 296.98 61.1C297.015 61.132 297.046 61.1691 297.07 61.21C297.112 61.257 297.146 61.3112 297.17 61.37C297.25 61.4898 297.311 61.6214 297.35 61.76C297.385 61.85 297.409 61.9441 297.42 62.04C297.424 62.0494 297.427 62.0596 297.427 62.07C297.427 62.0804 297.424 62.0906 297.42 62.1C297.447 62.1911 297.464 62.2851 297.47 62.38C297.51 62.49 297.52 62.62 297.52 62.76Z" fill="#455A64"/>
</g>
</g>
<path d="M296.51 60.71C296.17 60.583 295.804 60.5403 295.443 60.5856C295.083 60.6309 294.738 60.7628 294.44 60.97L94.35 176.66C93.4532 177.246 92.7064 178.035 92.1698 178.962C91.6331 179.89 91.3215 180.93 91.26 182V192.08L87.32 189.77V179.77C87.3788 178.702 87.6883 177.663 88.2234 176.737C88.7585 175.811 89.5042 175.024 90.4 174.44L290.5 58.75C290.819 58.5142 291.199 58.3724 291.594 58.3406C291.99 58.3088 292.387 58.3882 292.74 58.57C293.29 58.9 295.85 60.37 296.51 60.71Z" fill="#BA68C8"/>
<path d="M297.52 62.73C297.52 60.79 296.13 60 294.44 60.98L94.34 176.67C93.4441 177.254 92.6985 178.041 92.1634 178.967C91.6283 179.893 91.3188 180.932 91.26 182V192.08L297.52 72.85V62.73Z" fill="#BA68C8"/>
<g opacity="0.4">
<path d="M294.44 61L94.35 176.67C93.4362 177.245 92.6882 178.048 92.18 179L88.26 176.74C88.7703 175.817 89.5067 175.04 90.4 174.48L290.5 58.75C290.82 58.5158 291.198 58.3741 291.593 58.3406C291.988 58.3071 292.385 58.383 292.74 58.56C293.29 58.9 295.85 60.36 296.5 60.71C296.16 60.5829 295.793 60.5428 295.433 60.5934C295.073 60.6441 294.732 60.7838 294.44 61V61Z" fill="white"/>
</g>
<path opacity="0.15" d="M87.32 189.79V179.79C87.363 178.7 87.6868 177.639 88.26 176.71L92.19 178.96C91.6152 179.884 91.2944 180.943 91.26 182.03V192.11L87.32 189.79Z" fill="black"/>
<path d="M279 74.21C278.446 74.6503 278.001 75.2122 277.7 75.8521C277.398 76.4919 277.247 77.1927 277.26 77.9C277.26 79.38 278.04 80.13 279 79.58C279.554 79.1397 279.999 78.5778 280.3 77.938C280.602 77.2981 280.753 76.5973 280.74 75.89C280.69 74.41 279.91 73.66 279 74.21Z" fill="#455A64"/>
<path d="M285.22 70.59C284.666 71.0277 284.221 71.5877 283.919 72.2261C283.617 72.8644 283.467 73.564 283.48 74.27C283.48 75.75 284.26 76.5 285.22 75.95C285.781 75.5138 286.234 74.9537 286.542 74.3136C286.851 73.6735 287.008 72.9707 287 72.26C287 70.78 286.18 70 285.22 70.59Z" fill="#455A64"/>
<path d="M291.49 67C290.935 67.4388 290.488 68.0003 290.186 68.6406C289.885 69.2808 289.735 69.9823 289.75 70.69C289.75 72.17 290.53 72.92 291.49 72.36C292.045 71.9212 292.492 71.3597 292.794 70.7194C293.095 70.0792 293.245 69.3777 293.23 68.67C293.23 67.15 292.45 66.4 291.49 67Z" fill="#455A64"/>
<path opacity="0.9" d="M92.39 332.3L92.01 332.08C91.73 331.91 91.4 331.73 91.01 331.55L90.49 331.26L89.68 330.8C89.42 330.64 89.19 330.51 89 330.41C88.81 330.31 88.68 330.23 88.62 330.2C88.4153 330.095 88.2348 329.949 88.09 329.77C87.9208 329.587 87.7823 329.377 87.68 329.15C87.4391 328.641 87.316 328.083 87.32 327.52V189.78L91.26 192.09V329.71C91.2758 330.245 91.384 330.772 91.58 331.27C91.7146 331.575 91.9083 331.85 92.15 332.08C92.1944 332.142 92.2526 332.194 92.32 332.23L92.39 332.3Z" fill="#37474F"/>
<path d="M158.15 243.47C158.15 243.47 150.87 238.76 149.93 238.73L129.23 238.08L137.46 242.46V242.82L158.15 243.47Z" fill="#263238"/>
<path d="M122.67 257.66V244.66L158.15 200.55V217.75L137.46 242.42V242.78L158.15 243.43V260.63L122.67 257.66Z" fill="#FAFAFA"/>
<path d="M158.15 200.59L149.93 195.85L114.44 239.96L122.67 244.7L158.15 200.59Z" fill="#455A64"/>
<path d="M114.44 239.96V252.92L122.67 257.66V244.7L114.44 239.96Z" fill="#37474F"/>
<path d="M179.63 252.15L168.63 258.51L196.09 157.86L206.71 151.73L179.63 252.15Z" fill="#FAFAFA"/>
<path d="M206.7 151.73L198.47 146.99L187.85 153.12L196.07 157.86L206.7 151.73Z" fill="#455A64"/>
<path d="M187.85 153.12L196.07 157.86L168.62 258.51L160.39 253.77L187.85 153.12Z" fill="#37474F"/>
<path d="M208.94 204.66L217.16 209.4L237.85 184.5L229.63 179.76L208.94 204.66Z" fill="#263238"/>
<path d="M237.85 184.5L217.16 183.72V166.52L252.64 169.66V182.66L217.16 226.66V209.4L237.85 184.86V184.5Z" fill="#FAFAFA"/>
<path d="M208.94 161.78L217.16 166.52L252.65 169.66L244.42 164.92L208.94 161.78Z" fill="#455A64"/>
<path d="M217.16 166.52V183.72L208.94 178.98V161.78" fill="#37474F"/>
<path d="M208.94 204.66L217.16 209.4V226.6L208.94 221.86V204.66Z" fill="#37474F"/>
<g opacity="0.8">
<path d="M362.13 88.36V236.81C362.072 237.882 361.763 238.925 361.226 239.855C360.689 240.785 359.94 241.574 359.04 242.16L273.75 291.36C273.451 291.552 273.105 291.656 272.75 291.66C272.619 291.658 272.488 291.641 272.36 291.61L272.09 291.52L271.93 291.42L271.75 291.3C271.689 291.255 271.632 291.205 271.58 291.15C271.335 290.923 271.141 290.647 271.01 290.34C270.797 289.848 270.688 289.317 270.69 288.78V141.08C270.748 140.009 271.057 138.967 271.592 138.038C272.127 137.108 272.873 136.318 273.77 135.73L359 86.58C359.299 86.3695 359.644 86.2348 360.007 86.1878C360.369 86.1408 360.737 86.1827 361.08 86.31C361.172 86.3537 361.259 86.4073 361.34 86.47V86.47C361.416 86.5269 361.483 86.5942 361.54 86.67C361.575 86.702 361.606 86.7391 361.63 86.78C361.672 86.827 361.706 86.8812 361.73 86.94C361.815 87.0619 361.879 87.197 361.92 87.34C361.955 87.4266 361.979 87.5173 361.99 87.61C361.994 87.6194 361.997 87.6296 361.997 87.64C361.997 87.6504 361.994 87.6606 361.99 87.67C362.017 87.7611 362.034 87.8551 362.04 87.95C362.12 88.1 362.13 88.23 362.13 88.36Z" fill="#455A64"/>
<path d="M360.41 87.16C360.514 87.1582 360.617 87.1822 360.71 87.23V87.23H360.77L360.86 87.34L360.93 87.46L361.03 87.75C361.035 87.7731 361.035 87.7969 361.03 87.82C361.036 87.9199 361.036 88.0201 361.03 88.12V236.81C360.973 237.706 360.71 238.576 360.26 239.354C359.811 240.131 359.188 240.794 358.44 241.29L273.26 290.5C273.105 290.6 272.925 290.656 272.74 290.66H272.53H272.46L272.33 290.58C272.193 290.446 272.084 290.286 272.01 290.11C271.848 289.745 271.766 289.349 271.77 288.95V141.08C271.825 140.185 272.087 139.314 272.534 138.537C272.982 137.76 273.603 137.097 274.35 136.6L359.64 87.45C359.901 87.2807 360.2 87.1808 360.51 87.16H360.41ZM360.51 86.16C360.025 86.1802 359.553 86.3248 359.14 86.58L273.85 135.73C272.953 136.318 272.207 137.108 271.672 138.038C271.137 138.967 270.828 140.009 270.77 141.08V288.78C270.768 289.317 270.877 289.848 271.09 290.34C271.221 290.647 271.415 290.923 271.66 291.15C271.712 291.205 271.769 291.255 271.83 291.3L272.01 291.42L272.17 291.52L272.44 291.61C272.568 291.641 272.699 291.658 272.83 291.66V291.66C273.185 291.655 273.531 291.551 273.83 291.36L359 242.16C359.899 241.573 360.647 240.783 361.183 239.854C361.72 238.924 362.031 237.882 362.09 236.81V88.36C362.09 88.23 362.09 88.1 362.09 87.97C362.084 87.8751 362.067 87.7811 362.04 87.69C362.044 87.6806 362.047 87.6704 362.047 87.66C362.047 87.6496 362.044 87.6394 362.04 87.63C362.029 87.5373 362.005 87.4466 361.97 87.36C361.929 87.2171 361.865 87.0819 361.78 86.96C361.756 86.9012 361.722 86.8471 361.68 86.8C361.656 86.7591 361.625 86.722 361.59 86.69C361.533 86.6142 361.466 86.5469 361.39 86.49C361.309 86.4273 361.222 86.3737 361.13 86.33C360.907 86.2286 360.665 86.1774 360.42 86.18L360.51 86.16Z" fill="#455A64"/>
<g opacity="0.8">
<path d="M362.13 88.36V236.81C362.072 237.882 361.763 238.925 361.226 239.855C360.689 240.785 359.94 241.574 359.04 242.16L273.75 291.36C273.451 291.552 273.105 291.656 272.75 291.66C272.619 291.658 272.488 291.641 272.36 291.61L272.09 291.52L271.93 291.42L271.75 291.3C271.689 291.255 271.632 291.205 271.58 291.15C271.335 290.923 271.141 290.647 271.01 290.34C270.797 289.848 270.688 289.317 270.69 288.78V141.08C270.748 140.009 271.057 138.967 271.592 138.038C272.127 137.108 272.873 136.318 273.77 135.73L359 86.58C359.299 86.3695 359.644 86.2348 360.007 86.1878C360.369 86.1408 360.737 86.1827 361.08 86.31C361.172 86.3537 361.259 86.4073 361.34 86.47V86.47C361.416 86.5269 361.483 86.5942 361.54 86.67C361.575 86.702 361.606 86.7391 361.63 86.78C361.672 86.827 361.706 86.8812 361.73 86.94C361.815 87.0619 361.879 87.197 361.92 87.34C361.955 87.4266 361.979 87.5173 361.99 87.61C361.994 87.6194 361.997 87.6296 361.997 87.64C361.997 87.6504 361.994 87.6606 361.99 87.67C362.017 87.7611 362.034 87.8551 362.04 87.95C362.12 88.1 362.13 88.23 362.13 88.36Z" fill="#455A64"/>
</g>
</g>
<path d="M361.12 86.31C360.777 86.1827 360.409 86.1408 360.047 86.1878C359.684 86.2348 359.339 86.3695 359.04 86.58L273.75 135.73C272.853 136.318 272.107 137.108 271.572 138.038C271.037 138.967 270.728 140.009 270.67 141.08V151.16L266.73 148.85V138.85C266.789 137.782 267.098 136.743 267.633 135.817C268.168 134.891 268.914 134.104 269.81 133.52L355.11 84.36C355.43 84.1293 355.807 83.9905 356.2 83.9588C356.593 83.9271 356.987 84.0036 357.34 84.18C357.9 84.5 360.46 86 361.12 86.31Z" fill="#BA68C8"/>
<path d="M362.12 88.34C362.12 86.34 360.74 85.6 359.04 86.58L273.75 135.74C272.853 136.325 272.106 137.114 271.571 138.042C271.036 138.969 270.727 140.01 270.67 141.08V151.16L362.12 98.46V88.34Z" fill="#BA68C8"/>
<g opacity="0.4">
<path d="M359 86.58L273.72 135.74C272.812 136.303 272.062 137.087 271.54 138.02L267.63 135.76C268.138 134.838 268.875 134.063 269.77 133.51L355.1 84.35C355.421 84.1184 355.8 83.9792 356.195 83.9475C356.59 83.9157 356.986 83.9927 357.34 84.17C357.9 84.51 360.45 85.96 361.1 86.31C360.755 86.1757 360.382 86.13 360.016 86.1772C359.649 86.2243 359.299 86.3628 359 86.58V86.58Z" fill="white"/>
</g>
<path opacity="0.15" d="M266.73 148.86V138.86C266.774 137.77 267.098 136.709 267.67 135.78L271.59 138.03C271.023 138.956 270.706 140.014 270.67 141.1V151.18L266.73 148.86Z" fill="black"/>
<path d="M343.55 99.82C342.996 100.258 342.551 100.818 342.249 101.456C341.947 102.094 341.797 102.794 341.81 103.5C341.81 104.98 342.59 105.73 343.55 105.18C344.104 104.74 344.549 104.178 344.85 103.538C345.152 102.898 345.303 102.197 345.29 101.49C345.29 100 344.51 99.26 343.55 99.82Z" fill="#455A64"/>
<path d="M349.82 96.19C349.266 96.6298 348.82 97.1915 348.519 97.8315C348.217 98.4715 348.067 99.1725 348.08 99.88C348.08 101.36 348.86 102.11 349.82 101.55C350.377 101.113 350.825 100.552 351.127 99.9109C351.429 99.2703 351.577 98.568 351.56 97.86C351.56 96.38 350.79 95.63 349.82 96.19Z" fill="#455A64"/>
<path d="M356.09 92.56C355.536 93.0003 355.091 93.5622 354.79 94.2021C354.488 94.8419 354.337 95.5427 354.35 96.25C354.35 97.73 355.13 98.48 356.09 97.92C356.647 97.4843 357.095 96.925 357.399 96.2864C357.703 95.6477 357.854 94.9471 357.84 94.24C357.84 92.76 357.06 92 356.09 92.56Z" fill="#455A64"/>
<path opacity="0.9" d="M271.8 291.37L271.42 291.15L270.47 290.62L269.95 290.32L269.14 289.86C268.88 289.7 268.64 289.57 268.46 289.47C268.28 289.37 268.14 289.29 268.08 289.26C267.875 289.155 267.695 289.009 267.55 288.83C267.381 288.647 267.242 288.437 267.14 288.21C266.899 287.701 266.776 287.143 266.78 286.58V148.85L270.72 151.16V288.78C270.736 289.315 270.844 289.842 271.04 290.34C271.171 290.647 271.365 290.923 271.61 291.15C271.654 291.212 271.713 291.264 271.78 291.3C271.783 291.324 271.79 291.348 271.8 291.37Z" fill="#37474F"/>
<path d="M278.24 159.53C278.249 159.33 278.304 159.135 278.4 158.96L280.62 154.37C280.64 154.318 280.675 154.273 280.72 154.24V154.19C280.746 154.171 280.778 154.16 280.81 154.16C280.842 154.16 280.874 154.171 280.9 154.19C280.927 154.22 280.947 154.255 280.959 154.292C280.971 154.33 280.975 154.37 280.97 154.41V156C280.988 156.159 280.988 156.321 280.97 156.48C280.928 156.624 280.874 156.764 280.81 156.9L279.64 159.32L280.81 160.4C280.879 160.465 280.933 160.543 280.97 160.63C280.991 160.773 280.991 160.917 280.97 161.06V162.6C280.971 162.707 280.947 162.813 280.9 162.91C280.862 162.996 280.799 163.069 280.72 163.12V163.12C280.704 163.127 280.687 163.131 280.67 163.131C280.653 163.131 280.636 163.127 280.62 163.12L278.4 161.12C278.345 161.072 278.302 161.012 278.274 160.944C278.246 160.876 278.234 160.803 278.24 160.73V159.53Z" fill="#BA68C8"/>
<path d="M286.35 148C286.389 147.844 286.446 147.693 286.52 147.55C286.589 147.4 286.705 147.277 286.85 147.2L287.68 146.72C287.691 146.709 287.704 146.7 287.719 146.694C287.734 146.688 287.749 146.685 287.765 146.685C287.781 146.685 287.796 146.688 287.811 146.694C287.826 146.7 287.839 146.709 287.85 146.72C287.878 146.749 287.9 146.783 287.914 146.821C287.928 146.859 287.933 146.9 287.93 146.94C287.939 146.996 287.939 147.054 287.93 147.11L284.13 163.31C284.096 163.463 284.042 163.611 283.97 163.75C283.903 163.906 283.787 164.035 283.64 164.12L282.84 164.58C282.816 164.6 282.786 164.612 282.755 164.612C282.724 164.612 282.694 164.6 282.67 164.58C282.614 164.517 282.585 164.434 282.59 164.35C282.586 164.293 282.586 164.237 282.59 164.18L286.35 148Z" fill="#BA68C8"/>
<path d="M292.23 152.6C292.226 152.799 292.175 152.995 292.08 153.17L289.86 157.76C289.833 157.811 289.799 157.858 289.76 157.9H289.7C289.676 157.919 289.646 157.929 289.615 157.929C289.584 157.929 289.554 157.919 289.53 157.9C289.478 157.835 289.453 157.753 289.46 157.67V156.13C289.442 155.971 289.442 155.809 289.46 155.65C289.498 155.505 289.552 155.364 289.62 155.23L290.79 152.81L289.62 151.74C289.55 151.673 289.495 151.591 289.46 151.5C289.439 151.357 289.439 151.213 289.46 151.07V149.53C289.46 149.423 289.484 149.317 289.53 149.22C289.568 149.137 289.626 149.064 289.7 149.01H289.76C289.76 149.01 289.82 149.01 289.86 149.01L292.08 151.01C292.134 151.061 292.176 151.123 292.202 151.192C292.228 151.262 292.238 151.336 292.23 151.41V152.6Z" fill="#BA68C8"/>
<path d="M298.39 151.53C298.422 151.506 298.46 151.492 298.5 151.492C298.54 151.492 298.578 151.506 298.61 151.53C298.643 151.568 298.668 151.613 298.683 151.661C298.699 151.709 298.704 151.76 298.7 151.81V153.5C298.7 153.632 298.669 153.762 298.61 153.88C298.567 153.991 298.49 154.086 298.39 154.15L297.39 154.75C297.362 154.777 297.324 154.793 297.285 154.793C297.246 154.793 297.208 154.777 297.18 154.75C297.146 154.714 297.121 154.671 297.105 154.625C297.09 154.578 297.085 154.529 297.09 154.48V152.78C297.091 152.648 297.122 152.518 297.18 152.4C297.222 152.294 297.296 152.204 297.39 152.14L298.39 151.53Z" fill="#BA68C8"/>
<path d="M301.89 149.52C301.921 149.494 301.96 149.48 302 149.48C302.04 149.48 302.079 149.494 302.11 149.52C302.143 149.558 302.168 149.603 302.183 149.651C302.199 149.699 302.204 149.75 302.2 149.8V151.49C302.2 151.622 302.169 151.752 302.11 151.87C302.067 151.981 301.99 152.076 301.89 152.14L300.89 152.74C300.859 152.764 300.82 152.778 300.78 152.778C300.74 152.778 300.702 152.764 300.67 152.74C300.637 152.702 300.612 152.657 300.597 152.609C300.581 152.561 300.576 152.51 300.58 152.46V150.76C300.582 150.628 300.613 150.499 300.67 150.38C300.713 150.271 300.79 150.18 300.89 150.12L301.89 149.52Z" fill="#BA68C8"/>
<path d="M305.39 147.5C305.418 147.473 305.456 147.457 305.495 147.457C305.534 147.457 305.572 147.473 305.6 147.5C305.633 147.538 305.658 147.583 305.673 147.631C305.689 147.679 305.694 147.73 305.69 147.78V149.47C305.689 149.605 305.658 149.738 305.6 149.86C305.555 149.964 305.482 150.054 305.39 150.12L304.34 150.72C304.311 150.745 304.274 150.759 304.235 150.759C304.196 150.759 304.159 150.745 304.13 150.72C304.097 150.682 304.072 150.637 304.057 150.589C304.041 150.541 304.036 150.49 304.04 150.44V148.74C304.042 148.608 304.073 148.479 304.13 148.36C304.175 148.256 304.248 148.166 304.34 148.1L305.39 147.5Z" fill="#BA68C8"/>
<path d="M279.18 171.9L330.42 142.32C331.03 141.97 331.52 142.22 331.52 142.87C331.493 143.239 331.38 143.596 331.189 143.912C330.997 144.229 330.734 144.495 330.42 144.69L279.18 174.28C278.57 174.63 278.08 174.38 278.08 173.72C278.107 173.352 278.221 172.995 278.412 172.678C278.603 172.362 278.866 172.096 279.18 171.9V171.9Z" fill="#BA68C8"/>
<path d="M295.62 190.89L346.86 161.3C347.47 160.95 347.96 161.2 347.96 161.86C347.933 162.228 347.819 162.585 347.628 162.902C347.437 163.218 347.174 163.484 346.86 163.68L295.62 193.26C295.01 193.61 294.52 193.36 294.52 192.71C294.547 192.341 294.66 191.984 294.851 191.668C295.043 191.351 295.306 191.085 295.62 190.89Z" fill="#E0E0E0"/>
<path d="M295.62 200.38L320.15 186.23C320.75 185.88 321.24 186.13 321.24 186.79C321.214 187.156 321.101 187.511 320.912 187.826C320.723 188.14 320.461 188.406 320.15 188.6L295.62 202.76C295.01 203.1 294.52 202.86 294.52 202.2C294.547 201.832 294.661 201.475 294.852 201.158C295.043 200.842 295.306 200.576 295.62 200.38Z" fill="#E0E0E0"/>
<path d="M295.62 209.87L320.15 195.72C320.75 195.38 321.24 195.62 321.24 196.28C321.212 196.647 321.099 197.003 320.91 197.319C320.721 197.635 320.461 197.902 320.15 198.1L295.62 212.25C295.01 212.6 294.52 212.35 294.52 211.69C294.547 211.322 294.661 210.965 294.852 210.648C295.043 210.332 295.306 210.066 295.62 209.87Z" fill="#E0E0E0"/>
<path d="M334.67 139.87L355.08 128C355.69 127.65 356.18 127.9 356.18 128.55C356.153 128.919 356.04 129.276 355.849 129.592C355.657 129.909 355.394 130.175 355.08 130.37L334.67 142.2C334.06 142.55 333.57 142.3 333.57 141.65C333.603 141.288 333.719 140.939 333.91 140.63C334.101 140.321 334.361 140.061 334.67 139.87V139.87Z" fill="#BA68C8"/>
<path d="M279.18 276.31L330.42 246.73C331.03 246.38 331.52 246.63 331.52 247.28C331.493 247.649 331.38 248.006 331.189 248.322C330.997 248.639 330.734 248.905 330.42 249.1L279.18 278.69C278.57 279.03 278.08 278.79 278.08 278.13C278.107 277.762 278.221 277.405 278.412 277.088C278.603 276.772 278.866 276.506 279.18 276.31Z" fill="#BA68C8"/>
<path d="M334.67 244.27L355.08 232.44C355.69 232.09 356.18 232.34 356.18 233C356.153 233.368 356.039 233.725 355.848 234.042C355.657 234.358 355.394 234.624 355.08 234.82L334.67 246.65C334.06 247 333.57 246.75 333.57 246.09C333.597 245.722 333.711 245.365 333.902 245.048C334.093 244.732 334.356 244.466 334.67 244.27V244.27Z" fill="#BA68C8"/>
<path d="M334.67 215.85L355.08 204C355.69 203.65 356.18 203.9 356.18 204.55C356.153 204.919 356.04 205.276 355.849 205.592C355.657 205.909 355.394 206.175 355.08 206.37L334.67 218.2C334.06 218.55 333.57 218.3 333.57 217.65C333.6 217.285 333.715 216.932 333.906 216.619C334.097 216.306 334.359 216.043 334.67 215.85Z" fill="#BA68C8"/>
<path d="M334.67 225.34L355.08 213.51C355.69 213.16 356.18 213.41 356.18 214.06C356.153 214.429 356.04 214.786 355.849 215.102C355.657 215.419 355.394 215.685 355.08 215.88L334.67 227.71C334.06 228.06 333.57 227.81 333.57 227.16C333.597 226.791 333.71 226.434 333.901 226.118C334.093 225.801 334.356 225.535 334.67 225.34V225.34Z" fill="#BA68C8"/>
<path d="M279.18 266.83L330.42 237.24C331.03 236.9 331.52 237.14 331.52 237.8C331.493 238.168 331.379 238.525 331.188 238.842C330.997 239.158 330.734 239.424 330.42 239.62L279.18 269.2C278.57 269.55 278.08 269.3 278.08 268.65C278.107 268.281 278.22 267.924 278.411 267.608C278.603 267.291 278.866 267.025 279.18 266.83V266.83Z" fill="#F5F5F5"/>
<path d="M317.26 225.87L328.73 219.25C329.33 218.9 329.82 219.15 329.82 219.8C329.794 220.168 329.681 220.524 329.492 220.84C329.303 221.156 329.042 221.423 328.73 221.62L317.26 228.24C316.65 228.59 316.16 228.35 316.16 227.69C316.187 227.321 316.3 226.964 316.491 226.648C316.683 226.331 316.946 226.065 317.26 225.87V225.87Z" fill="#BA68C8"/>
<path d="M279.18 181.42L309.07 164.15C309.67 163.8 310.16 164.05 310.16 164.7C310.134 165.068 310.021 165.424 309.832 165.74C309.643 166.056 309.382 166.323 309.07 166.52L279.18 183.79C278.57 184.14 278.08 183.89 278.08 183.24C278.107 182.871 278.22 182.514 278.411 182.198C278.603 181.881 278.866 181.615 279.18 181.42V181.42Z" fill="#BA68C8"/>
<path opacity="0.6" d="M279.18 181.42L309.07 164.15C309.67 163.8 310.16 164.05 310.16 164.7C310.134 165.068 310.021 165.424 309.832 165.74C309.643 166.056 309.382 166.323 309.07 166.52L279.18 183.79C278.57 184.14 278.08 183.89 278.08 183.24C278.107 182.871 278.22 182.514 278.411 182.198C278.603 181.881 278.866 181.615 279.18 181.42V181.42Z" fill="white"/>
<path d="M279.18 190.89L289.32 185C289.92 184.65 290.41 184.9 290.41 185.56C290.382 185.927 290.269 186.283 290.08 186.599C289.891 186.915 289.631 187.182 289.32 187.38L279.18 193.24C278.57 193.59 278.08 193.34 278.08 192.68C278.112 192.317 278.228 191.966 278.419 191.655C278.61 191.345 278.87 191.083 279.18 190.89Z" fill="#BA68C8"/>
<path opacity="0.6" d="M279.18 190.89L289.32 185C289.92 184.65 290.41 184.9 290.41 185.56C290.382 185.927 290.269 186.283 290.08 186.599C289.891 186.915 289.631 187.182 289.32 187.38L279.18 193.24C278.57 193.59 278.08 193.34 278.08 192.68C278.112 192.317 278.228 191.966 278.419 191.655C278.61 191.345 278.87 191.083 279.18 190.89Z" fill="white"/>
<path d="M279.18 200.39L289.32 194.52C289.92 194.17 290.41 194.42 290.41 195.08C290.382 195.447 290.269 195.803 290.08 196.119C289.891 196.435 289.631 196.702 289.32 196.9L279.18 202.76C278.57 203.11 278.08 202.86 278.08 202.2C278.107 201.833 278.22 201.477 278.411 201.162C278.603 200.847 278.866 200.583 279.18 200.39Z" fill="#BA68C8"/>
<path opacity="0.6" d="M279.18 200.39L289.32 194.52C289.92 194.17 290.41 194.42 290.41 195.08C290.382 195.447 290.269 195.803 290.08 196.119C289.891 196.435 289.631 196.702 289.32 196.9L279.18 202.76C278.57 203.11 278.08 202.86 278.08 202.2C278.107 201.833 278.22 201.477 278.411 201.162C278.603 200.847 278.866 200.583 279.18 200.39Z" fill="white"/>
<path d="M279.18 209.88L289.32 204C289.92 203.65 290.41 203.89 290.41 204.55C290.384 204.918 290.271 205.274 290.082 205.59C289.893 205.906 289.632 206.173 289.32 206.37L279.18 212.23C278.57 212.58 278.08 212.33 278.08 211.68C278.11 211.315 278.225 210.962 278.416 210.649C278.607 210.336 278.869 210.073 279.18 209.88Z" fill="#BA68C8"/>
<path opacity="0.6" d="M279.18 209.88L289.32 204C289.92 203.65 290.41 203.89 290.41 204.55C290.384 204.918 290.271 205.274 290.082 205.59C289.893 205.906 289.632 206.173 289.32 206.37L279.18 212.23C278.57 212.58 278.08 212.33 278.08 211.68C278.11 211.315 278.225 210.962 278.416 210.649C278.607 210.336 278.869 210.073 279.18 209.88Z" fill="white"/>
<path d="M279.18 219.37L289.32 213.51C289.92 213.16 290.41 213.41 290.41 214.06C290.384 214.428 290.271 214.784 290.082 215.1C289.893 215.416 289.632 215.683 289.32 215.88L279.18 221.74C278.57 222.09 278.08 221.84 278.08 221.19C278.107 220.821 278.22 220.464 278.411 220.148C278.603 219.831 278.866 219.565 279.18 219.37V219.37Z" fill="#BA68C8"/>
<path opacity="0.6" d="M279.18 219.37L289.32 213.51C289.92 213.16 290.41 213.41 290.41 214.06C290.384 214.428 290.271 214.784 290.082 215.1C289.893 215.416 289.632 215.683 289.32 215.88L279.18 221.74C278.57 222.09 278.08 221.84 278.08 221.19C278.107 220.821 278.22 220.464 278.411 220.148C278.603 219.831 278.866 219.565 279.18 219.37V219.37Z" fill="white"/>
<path d="M313.31 161.7L326.31 154.22C326.91 153.87 327.41 154.12 327.41 154.77C327.382 155.138 327.268 155.495 327.077 155.811C326.886 156.127 326.623 156.394 326.31 156.59L313.31 164.07C312.71 164.42 312.22 164.17 312.22 163.52C312.246 163.152 312.359 162.796 312.548 162.48C312.737 162.164 312.998 161.897 313.31 161.7V161.7Z" fill="#BA68C8"/>
<path opacity="0.6" d="M313.31 161.7L326.31 154.22C326.91 153.87 327.41 154.12 327.41 154.77C327.382 155.138 327.268 155.495 327.077 155.811C326.886 156.127 326.623 156.394 326.31 156.59L313.31 164.07C312.71 164.42 312.22 164.17 312.22 163.52C312.246 163.152 312.359 162.796 312.548 162.48C312.737 162.164 312.998 161.897 313.31 161.7V161.7Z" fill="white"/>
<path d="M308 212.23L337.84 195C338.44 194.65 338.93 194.9 338.93 195.56C338.902 195.927 338.789 196.283 338.6 196.599C338.411 196.915 338.151 197.182 337.84 197.38L308 214.61C307.4 214.96 306.9 214.71 306.9 214.05C306.927 213.682 307.041 213.325 307.232 213.008C307.423 212.692 307.686 212.426 308 212.23V212.23Z" fill="#F5F5F5"/>
<path d="M325.19 211.81L355.08 194.54C355.69 194.19 356.18 194.44 356.18 195.09C356.153 195.459 356.04 195.816 355.849 196.132C355.657 196.449 355.394 196.715 355.08 196.91L325.19 214.18C324.59 214.53 324.1 214.28 324.1 213.63C324.126 213.262 324.239 212.906 324.428 212.59C324.617 212.274 324.878 212.007 325.19 211.81V211.81Z" fill="#F5F5F5"/>
<path d="M342.09 192.51L355.09 185.03C355.7 184.68 356.19 184.93 356.19 185.59C356.163 185.958 356.049 186.315 355.858 186.632C355.667 186.948 355.404 187.214 355.09 187.41L342.09 194.89C341.48 195.23 340.99 194.99 340.99 194.33C341.017 193.962 341.131 193.605 341.322 193.288C341.513 192.972 341.776 192.706 342.09 192.51V192.51Z" fill="#F5F5F5"/>
<path d="M295.62 181.4L325.51 164.13C326.11 163.78 326.6 164.03 326.6 164.69C326.572 165.057 326.459 165.413 326.27 165.729C326.081 166.045 325.821 166.312 325.51 166.51L295.62 183.77C295.01 184.12 294.52 183.88 294.52 183.22C294.547 182.852 294.661 182.495 294.852 182.178C295.043 181.862 295.306 181.596 295.62 181.4V181.4Z" fill="#BA68C8"/>
<path opacity="0.6" d="M295.62 181.4L325.51 164.13C326.11 163.78 326.6 164.03 326.6 164.69C326.572 165.057 326.459 165.413 326.27 165.729C326.081 166.045 325.821 166.312 325.51 166.51L295.62 183.77C295.01 184.12 294.52 183.88 294.52 183.22C294.547 182.852 294.661 182.495 294.852 182.178C295.043 181.862 295.306 181.596 295.62 181.4V181.4Z" fill="white"/>
<path d="M329.75 161.68L342.75 154.2C343.36 153.85 343.85 154.1 343.85 154.75C343.823 155.119 343.71 155.476 343.519 155.792C343.328 156.109 343.064 156.375 342.75 156.57L329.75 164.05C329.15 164.4 328.66 164.15 328.66 163.5C328.686 163.132 328.799 162.776 328.988 162.46C329.177 162.144 329.438 161.877 329.75 161.68Z" fill="#BA68C8"/>
<path opacity="0.6" d="M329.75 161.68L342.75 154.2C343.36 153.85 343.85 154.1 343.85 154.75C343.823 155.119 343.71 155.476 343.519 155.792C343.328 156.109 343.064 156.375 342.75 156.57L329.75 164.05C329.15 164.4 328.66 164.15 328.66 163.5C328.686 163.132 328.799 162.776 328.988 162.46C329.177 162.144 329.438 161.877 329.75 161.68Z" fill="white"/>
</svg>
